<svg xmlns="http://www.w3.org/2000/svg" width="1200" height="900" viewBox="0 0 1200 900">
<rect width="100%" height="100%" fill="white"/>
<defs><marker id="arrow" markerWidth="10" markerHeight="10" refX="8" refY="4" orient="auto" markerUnits="strokeWidth"><path d="M 0 0 L 8 4 L 0 8 Z" fill="#172027"/></marker></defs>
<g font-family="Arial, Helvetica, sans-serif" fill="#172027" stroke-linecap="round" stroke-linejoin="round">
<text x="600" y="46" font-size="31" text-anchor="middle" ></text>
<line x1="175" y1="740" x2="1068.8" y2="740" stroke="#172027" stroke-width="4" marker-end="url(#arrow)"/>
<line x1="175" y1="740" x2="175" y2="136.8" stroke="#172027" stroke-width="4" marker-end="url(#arrow)"/>
<text x="161" y="769" font-size="26" text-anchor="end" >0</text><text x="50" y="83" font-size="31" text-anchor="start" >Average price level</text><text x="1055" y="834" font-size="31" text-anchor="end" >Real GDP</text>
<line x1="175" y1="421" x2="626" y2="421" stroke="#747e84" stroke-width="2.2" stroke-dasharray="9 8"/><line x1="626" y1="740" x2="626" y2="421" stroke="#747e84" stroke-width="2.2" stroke-dasharray="9 8"/><circle cx="626" cy="421" r="6" fill="#172027"/><text x="658" y="429" font-size="25" text-anchor="start" >E1</text><text x="160" y="430" font-size="28" text-anchor="end" >PL1</text><text x="626" y="779" font-size="28" text-anchor="middle" >Y1</text><line x1="175" y1="493.5" x2="523.5" y2="493.5" stroke="#747e84" stroke-width="2.2" stroke-dasharray="9 8"/><line x1="523.5" y1="740" x2="523.5" y2="493.5" stroke="#747e84" stroke-width="2.2" stroke-dasharray="9 8"/><circle cx="523.5" cy="493.5" r="6" fill="#172027"/><text x="555.5" y="501.5" font-size="25" text-anchor="start" >E2</text><text x="160" y="502.5" font-size="28" text-anchor="end" >PL2</text><text x="523.5" y="779" font-size="28" text-anchor="middle" >Y2</text><line x1="339" y1="218" x2="954" y2="653" stroke="#172027" stroke-width="5"/><text x="970.4" y="658.8" font-size="31" text-anchor="start" >AD1</text><line x1="240.6" y1="293.4" x2="773.6" y2="670.4" stroke="#172027" stroke-width="5"/><text x="790" y="682" font-size="31" text-anchor="start" >AD2</text><line x1="257" y1="682" x2="904.8" y2="223.8" stroke="#172027" stroke-width="5"/><text x="921.2" y="218" font-size="31" text-anchor="start" >SRAS</text><line x1="396.4" y1="276" x2="257" y2="276" stroke="#172027" stroke-width="3" marker-end="url(#arrow)"/>
</g></svg>