<svg xmlns="http://www.w3.org/2000/svg" width="1200" height="900" viewBox="0 0 1200 900">
<rect width="100%" height="100%" fill="white"/>
<defs><marker id="arrow" markerWidth="10" markerHeight="10" refX="8" refY="4" orient="auto" markerUnits="strokeWidth"><path d="M 0 0 L 8 4 L 0 8 Z" fill="#172027"/></marker></defs>
<g font-family="Arial, Helvetica, sans-serif" fill="#172027" stroke-linecap="round" stroke-linejoin="round">
<text x="600" y="46" font-size="31" text-anchor="middle" >Wheat market</text>
<line x1="175" y1="740" x2="1068.8" y2="740" stroke="#172027" stroke-width="4" marker-end="url(#arrow)"/>
<line x1="175" y1="740" x2="175" y2="136.8" stroke="#172027" stroke-width="4" marker-end="url(#arrow)"/>
<text x="161" y="769" font-size="26" text-anchor="end" >0</text><text x="50" y="83" font-size="31" text-anchor="start" >Wheat price, Pw</text><text x="1055" y="834" font-size="31" text-anchor="end" >Wheat quantity, Qw</text>
<line x1="175" y1="421" x2="626" y2="421" stroke="#747e84" stroke-width="2.2" stroke-dasharray="9 8"/><line x1="626" y1="740" x2="626" y2="421" stroke="#747e84" stroke-width="2.2" stroke-dasharray="9 8"/><circle cx="626" cy="421" r="6" fill="#172027"/><text x="658" y="429" font-size="25" text-anchor="start" >E</text><text x="160" y="430" font-size="28" text-anchor="end" >P</text><text x="626" y="779" font-size="28" text-anchor="middle" >Q</text><line x1="175" y1="334" x2="503" y2="334" stroke="#747e84" stroke-width="2.2" stroke-dasharray="9 8"/><line x1="503" y1="740" x2="503" y2="334" stroke="#747e84" stroke-width="2.2" stroke-dasharray="9 8"/><circle cx="503" cy="334" r="6" fill="#172027"/><text x="535" y="342" font-size="25" text-anchor="start" >E′</text><text x="160" y="343" font-size="28" text-anchor="end" >P′</text><text x="503" y="779" font-size="28" text-anchor="middle" >Q′</text><line x1="339" y1="218" x2="954" y2="653" stroke="#172027" stroke-width="5"/><text x="970.4" y="658.8" font-size="31" text-anchor="start" >D</text><line x1="257" y1="682" x2="904.8" y2="223.8" stroke="#172027" stroke-width="5"/><text x="921.2" y="218" font-size="31" text-anchor="start" >S</text><line x1="199.6" y1="548.6" x2="724.4" y2="177.4" stroke="#172027" stroke-width="5"/><text x="732.6" y="171.6" font-size="31" text-anchor="start" >S′</text>
</g></svg>